<svg width="24" height="24" viewBox="0 0 24 24" fill="none" xmlns="http://www.w3.org/2000/svg">
<path d="M5 20.0001L6.5 14.5001L16 5.00014C16.4214 4.64501 16.9607 4.46096 17.5113 4.48442C18.0619 4.50787 18.5837 4.73711 18.9733 5.12679C19.363 5.51647 19.5923 6.03821 19.6157 6.5888C19.6392 7.13939 19.4551 7.67873 19.1 8.10014L9.6 17.6001L5 20.0001Z" stroke="black" stroke-width="1.6" stroke-linejoin="round"/>
<path d="M11 13L14 10" stroke="black" stroke-width="1.6" stroke-linecap="round"/>
<path d="M6.25 6.25L7 4L7.75 6.25L10 7L7.75 7.75L7 10L6.25 7.75L4 7L6.25 6.25Z" fill="black"/>
<path d="M16.25 16.25L17 14L17.75 16.25L20 17L17.75 17.75L17 20L16.25 17.75L14 17L16.25 16.25Z" fill="black"/>
</svg>
